<svg width="157" height="151" viewBox="0 0 157 151" fill="none" xmlns="http://www.w3.org/2000/svg">
<g id="Character">
<path id="Vector" d="M51.5235 131.593H0L2.89856 128.732H53.2161L51.5235 131.593Z" fill="#E0E0E0"/>
<path id="Vector_2" d="M94.8008 71.2155C95.1246 71.0581 95.4328 70.8704 95.7211 70.6548C96.2765 70.2846 97.0329 69.7662 97.8369 69.1791L98.2547 68.8829L98.1013 68.8459C98.5456 69.6234 98.9423 70.3057 99.2385 70.787C99.3863 71.058 99.5637 71.3116 99.7675 71.5434C99.6722 71.2539 99.5426 70.9769 99.3814 70.7183C99.1222 70.2158 98.7413 69.5176 98.3235 68.7401L98.26 68.6343L98.1648 68.703L97.7417 68.9992C96.9165 69.5864 96.1549 70.1259 95.6259 70.5279C95.3268 70.7266 95.0502 70.9572 94.8008 71.2155Z" fill="#263238"/>
<path id="Vector_3" d="M155.74 129.665C156.409 120.11 149.205 111.822 139.649 111.153C130.094 110.484 121.806 117.688 121.137 127.243C120.468 136.798 127.672 145.087 137.227 145.756C146.783 146.425 155.071 139.221 155.74 129.665Z" fill="#263238"/>
<path id="Vector_4" d="M120.387 128.134V128.182C120.367 132.74 122.147 137.123 125.34 140.377C128.533 143.63 132.881 145.492 137.44 145.558C141.998 145.623 146.398 143.887 149.683 140.726C152.968 137.566 154.874 133.236 154.984 128.679C154.984 128.679 154.984 128.647 154.984 128.637L120.387 128.134Z" fill="#263238"/>
<path id="Vector_5" d="M125.537 128.256C125.498 130.663 126.175 133.028 127.481 135.051C128.788 137.073 130.665 138.663 132.875 139.618C135.085 140.573 137.529 140.851 139.897 140.416C142.266 139.981 144.452 138.853 146.178 137.175C147.905 135.498 149.095 133.345 149.598 130.99C150.101 128.635 149.893 126.184 149.002 123.948C148.111 121.711 146.576 119.789 144.592 118.425C142.608 117.061 140.263 116.317 137.856 116.286C134.636 116.245 131.532 117.482 129.223 119.725C126.914 121.969 125.588 125.037 125.537 128.256V128.256Z" fill="#FAFAFA"/>
<path id="Vector_6" d="M137.854 116.286C134.635 116.245 131.53 117.482 129.221 119.725C126.912 121.969 125.587 125.037 125.535 128.256L149.824 128.605C149.865 125.385 148.628 122.281 146.384 119.972C144.141 117.663 141.073 116.337 137.854 116.286Z" fill="#E0E0E0"/>
<path id="Vector_7" d="M130.282 128.324C130.26 129.789 130.673 131.228 131.469 132.458C132.265 133.688 133.408 134.654 134.753 135.234C136.098 135.814 137.585 135.983 139.026 135.718C140.467 135.453 141.797 134.766 142.847 133.745C143.898 132.724 144.622 131.415 144.928 129.982C145.234 128.549 145.108 127.058 144.567 125.697C144.025 124.336 143.092 123.166 141.885 122.335C140.678 121.505 139.252 121.051 137.788 121.03C135.825 121.004 133.933 121.757 132.526 123.124C131.118 124.492 130.311 126.362 130.282 128.324V128.324Z" fill="#263238"/>
<path id="Vector_8" d="M129.472 103.063C129.472 103.063 147.186 97.7045 154.517 116.947L117.449 128.43L129.472 103.063Z" fill="#455A64"/>
<path id="Vector_9" d="M13.6346 128.182C13.5857 131.603 14.5527 134.963 16.4131 137.835C18.2735 140.707 20.9438 142.963 24.0863 144.317C27.2288 145.671 30.7024 146.064 34.0678 145.444C37.4332 144.824 40.5392 143.22 42.9931 140.835C45.4469 138.45 47.1384 135.391 47.8536 132.044C48.5688 128.698 48.2756 125.215 47.011 122.035C45.7465 118.855 43.5674 116.122 40.7494 114.181C37.9314 112.239 34.601 111.177 31.1793 111.129C28.9075 111.096 26.6514 111.511 24.54 112.35C22.4286 113.19 20.5032 114.437 18.8739 116.02C17.2446 117.604 15.9433 119.493 15.0443 121.58C14.1453 123.666 13.6663 125.91 13.6346 128.182V128.182Z" fill="#263238"/>
<path id="Vector_10" d="M13.6369 128.134V128.182C13.6168 132.74 15.3967 137.123 18.5899 140.377C21.783 143.63 26.1313 145.492 30.6896 145.558C35.2479 145.623 39.6478 143.887 42.9331 140.726C46.2184 137.566 48.1236 133.236 48.2345 128.679C48.2345 128.679 48.2345 128.647 48.2345 128.637L13.6369 128.134Z" fill="#263238"/>
<path id="Vector_11" d="M18.7906 128.256C18.752 130.664 19.4291 133.029 20.7361 135.052C22.0431 137.075 23.9212 138.665 26.1324 139.62C28.3435 140.574 30.7884 140.851 33.157 140.415C35.5257 139.979 37.7117 138.85 39.438 137.17C41.1642 135.491 42.3531 133.337 42.854 130.981C43.3549 128.625 43.1453 126.173 42.2517 123.937C41.3581 121.7 39.8207 119.779 37.8343 118.417C35.8479 117.055 33.502 116.313 31.0936 116.286C27.877 116.249 24.7768 117.488 22.4711 119.731C20.1655 121.974 18.8422 125.039 18.7906 128.256V128.256Z" fill="#FAFAFA"/>
<path id="Vector_12" d="M31.0923 116.286C27.873 116.245 24.7687 117.482 22.4596 119.725C20.1505 121.969 18.825 125.037 18.7734 128.256L43.0621 128.605C43.1031 125.385 41.8663 122.281 39.6226 119.972C37.379 117.663 34.3115 116.337 31.0923 116.286Z" fill="#E0E0E0"/>
<path id="Vector_13" d="M23.5321 128.324C23.5102 129.789 23.9234 131.228 24.7192 132.458C25.515 133.688 26.6578 134.654 28.0029 135.234C29.3481 135.814 30.8351 135.983 32.2759 135.718C33.7167 135.453 35.0465 134.766 36.0971 133.745C37.1477 132.724 37.8719 131.415 38.178 129.982C38.4841 128.549 38.3583 127.058 37.8167 125.697C37.2751 124.336 36.3419 123.166 35.1352 122.335C33.9285 121.505 32.5025 121.051 31.0377 121.03C29.0755 121.004 27.1828 121.757 25.7755 123.124C24.3682 124.492 23.5613 126.362 23.5321 128.324V128.324Z" fill="#263238"/>
<path id="Vector_14" d="M55.5423 121.485C55.4206 121.533 46.4287 120.078 46.4287 120.078C45.9418 120.715 45.3218 121.237 44.6119 121.609C43.902 121.981 43.1194 122.193 42.3189 122.231C38.4312 122.416 34.6229 122.591 31.3276 122.76C29.8581 122.827 28.4747 123.473 27.4789 124.556C26.4832 125.639 25.9559 127.071 26.0119 128.541V128.541C26.0717 129.942 26.6557 131.269 27.6482 132.26C28.6406 133.25 29.969 133.832 31.37 133.889L50.528 134.64C53.7016 134.767 57.8696 132.852 59.8372 130.408L55.5423 121.485Z" fill="#455A64"/>
<path id="Vector_15" d="M8.47609 113.826C8.47609 113.826 7.65095 96.9693 23.4978 93.4519V91.2938H79.0042V96.4457C79.0042 96.4457 70.8586 106.257 73.5192 114.403C76.1797 122.549 77.0101 123.395 77.0101 123.395H108.603C111.094 119.889 112.483 115.719 112.592 111.42C112.761 104.274 109.788 92.0449 107.572 84.2326C105.557 77.1237 104.282 71.1837 104.282 71.1837L113.755 68.0101C113.755 68.0101 131.295 90.9394 132.009 92.23C132.723 93.5206 135.182 96.525 134.59 103.116C133.998 109.706 118.256 130.049 114.104 132.344C109.952 134.64 106.202 134.783 102.499 135.359C99.2624 135.857 75.3493 135.523 69.092 135.428C66.9169 135.416 64.7844 134.825 62.914 133.714C61.0416 132.582 59.6346 130.705 58.0849 127.621L54.7896 121.173L8.47609 113.826Z" fill="#455A64"/>
<path id="Vector_16" d="M12.7206 112.673L5.72807 123.606C5.52775 123.912 5.43098 124.274 5.45206 124.639C5.47313 125.003 5.61093 125.352 5.84511 125.632C6.07929 125.912 6.39744 126.11 6.75258 126.196C7.10771 126.282 7.48102 126.251 7.81737 126.108C8.68721 125.724 9.48089 125.187 10.1605 124.521C13.3606 121.475 19.0625 113.461 19.0625 113.461L12.7206 112.673Z" fill="#455A64"/>
<path id="Vector_17" d="M62.8605 114.625C62.8683 114.571 62.8807 114.518 62.8975 114.466C62.9328 114.357 62.9804 114.204 63.0403 114.006C63.2086 113.415 63.3306 112.812 63.4053 112.203C63.6489 109.944 63.2837 107.661 62.3474 105.591C61.7115 104.165 60.8408 102.856 59.7715 101.719C58.5406 100.422 57.1125 99.3279 55.5401 98.4767C53.7969 97.5354 51.9312 96.8412 49.9968 96.4138C47.9115 95.9631 45.783 95.7432 43.6496 95.758C41.526 95.7744 39.4057 95.9299 37.3024 96.2234C35.2554 96.5038 33.2878 96.8423 31.4365 97.2813C28.1457 97.9778 24.974 99.1502 22.0215 100.762C20.0395 101.863 18.2276 103.245 16.6422 104.866C16.0815 105.443 15.6848 105.924 15.4151 106.252L15.1136 106.628C15.0821 106.671 15.0467 106.712 15.0078 106.749C15.4781 106.056 16.0091 105.407 16.5946 104.808C18.1652 103.155 19.9749 101.746 21.9633 100.629C24.9192 98.9854 28.1028 97.7893 31.4101 97.0803C33.2666 96.6518 35.2343 96.308 37.2865 96.0224C39.4069 95.7216 41.5451 95.5626 43.6866 95.5464C45.8311 95.5312 47.9706 95.7547 50.0656 96.2128C52.0193 96.6575 53.9024 97.3695 55.6617 98.3286C57.2553 99.1932 58.7014 100.305 59.9461 101.624C61.0255 102.779 61.9002 104.11 62.5326 105.559C63.4712 107.654 63.824 109.965 63.5534 112.245C63.4692 112.858 63.3329 113.463 63.1461 114.054L62.9822 114.509C62.9439 114.55 62.9033 114.589 62.8605 114.625V114.625Z" fill="#263238"/>
<path id="Vector_18" d="M59.6535 110.843C59.6271 110.843 59.7434 110.573 59.8651 110.092C60.0214 109.397 60.0411 108.679 59.9233 107.976C59.7613 106.944 59.4136 105.949 58.8971 105.041C58.6028 104.497 58.2593 103.982 57.871 103.502C57.4579 102.985 56.9916 102.514 56.4799 102.095C55.4879 101.282 54.3741 100.63 53.1794 100.164C52.1997 99.7869 51.1842 99.5104 50.1486 99.3389C49.448 99.2212 48.7418 99.14 48.0328 99.0956C47.7709 99.0935 47.5094 99.074 47.25 99.0374C47.3185 99.0282 47.3878 99.0282 47.4563 99.0374C47.5885 99.0374 47.7842 99.0374 48.0381 99.0374C48.7465 99.0483 49.4533 99.1066 50.1538 99.2119C51.205 99.3648 52.2369 99.629 53.2322 100C54.4529 100.466 55.5905 101.125 56.6016 101.952C57.1204 102.386 57.5904 102.876 58.0032 103.412C58.4029 103.908 58.757 104.439 59.0611 104.998C59.582 105.932 59.9246 106.954 60.0714 108.013C60.1741 108.729 60.1273 109.459 59.9338 110.156C59.8848 110.338 59.8174 110.515 59.7329 110.685C59.7109 110.74 59.6844 110.793 59.6535 110.843V110.843Z" fill="#F5F5F5"/>
<g id="Group" opacity="0.4">
<path id="Vector_19" d="M48.793 96.0701C51.782 96.6202 54.6264 97.7777 57.1501 99.4711C59.6885 101.158 61.6446 103.587 62.7515 106.427C63.857 109.278 63.693 113.054 62.5241 115.418L66.4488 115.741C67.7711 111.34 66.3324 105.935 63.1588 102.486C61.3418 100.477 59.1258 98.8684 56.6522 97.7637C54.1787 96.659 51.502 96.0822 48.793 96.0701" fill="black"/>
</g>
<path id="Vector_20" d="M78.9746 93.2561C78.9746 93.3196 66.4971 93.3672 51.1104 93.3672C35.7237 93.3672 23.2461 93.3196 23.2461 93.2561C23.2461 93.1926 35.7237 93.145 51.1104 93.145C66.4971 93.145 78.9746 93.1979 78.9746 93.2561Z" fill="#263238"/>
<path id="Vector_21" d="M79.0011 91.2937C79.5641 90.5766 79.9125 89.7147 80.0061 88.8078C80.0907 87.4114 79.4772 85.6659 77.9591 85.6659H58.7905C58.0517 85.6659 57.3202 85.8115 56.6377 86.0944C55.9552 86.3773 55.3351 86.7919 54.8129 87.3146C54.2907 87.8372 53.8767 88.4577 53.5944 89.1405C53.3122 89.8232 53.1673 90.5549 53.168 91.2937H79.0011Z" fill="#455A64"/>
<path id="Vector_22" d="M104.278 71.1732L100.941 64.223C100.495 63.2691 100.421 62.1835 100.733 61.178C101.045 60.1726 101.721 59.3195 102.628 58.7855L112.593 52.8403C113.114 52.5287 113.71 52.3641 114.317 52.3643H116.47L117.338 66.4128L114.011 67.7139L116.126 71.1308L104.278 71.1732Z" fill="#455A64"/>
<path id="Vector_23" d="M116.504 52.8719C116.504 52.8719 119.916 53.6548 120.344 58.9124C120.772 64.17 117.34 65.7885 117.34 65.7885L116.504 52.8719Z" fill="white"/>
<path id="Vector_24" d="M116.502 52.8721C116.525 52.9637 116.538 53.0578 116.539 53.1524L116.602 53.9088C116.66 54.5964 116.729 55.5273 116.819 56.6698C116.999 58.9971 117.237 62.1972 117.47 65.7992L117.274 65.6829C117.64 65.4822 117.977 65.2312 118.274 64.9371C118.95 64.2832 119.464 63.481 119.776 62.5939C120.071 61.7664 120.23 60.8964 120.247 60.018C120.302 58.5201 120.014 57.0294 119.406 55.6595C118.98 54.744 118.317 53.9588 117.486 53.3851C117.174 53.1793 116.845 53.0023 116.502 52.8562C116.6 52.8626 116.696 52.884 116.787 52.9197C117.051 53.0137 117.304 53.1342 117.544 53.2793C118.423 53.8327 119.129 54.6228 119.58 55.559C120.231 56.9493 120.546 58.473 120.5 60.0074C120.491 60.9089 120.332 61.8026 120.03 62.6521C119.698 63.5805 119.155 64.419 118.443 65.101C118.129 65.4132 117.773 65.6802 117.385 65.8944L117.2 65.9896V65.7781C116.967 62.1125 116.787 58.849 116.671 56.527C116.618 55.4004 116.571 54.48 116.539 53.7977L116.507 53.0731C116.5 53.0063 116.498 52.9391 116.502 52.8721V52.8721Z" fill="#263238"/>
<path id="Vector_25" d="M104.225 61.6682C104.225 61.6682 95.1433 65.9737 94.0326 66.656C93.2656 67.1479 92.6044 68.0048 93.2074 69.5175C94.2388 72.0882 98.4968 69.6709 98.4968 69.6709L106.96 65.4395C106.96 65.4395 110.207 63.9003 109.007 61.9855C107.642 59.8592 104.225 61.6682 104.225 61.6682Z" fill="#263238"/>
<path id="Vector_26" d="M103.075 56.0297C104.562 56.0297 105.767 53.9055 105.767 51.2852C105.767 48.6649 104.562 46.5406 103.075 46.5406C101.588 46.5406 100.383 48.6649 100.383 51.2852C100.383 53.9055 101.588 56.0297 103.075 56.0297Z" fill="#263238"/>
<path id="Vector_27" d="M103.52 54.5487L105.001 59.6741C105.271 59.5385 105.487 59.3145 105.612 59.0392C105.737 58.7639 105.764 58.4541 105.688 58.1613C105.318 56.4053 105.106 55.157 104.699 53.6178C104.651 53.4644 103.52 54.5487 103.52 54.5487" fill="#263238"/>
<g id="Group_2" opacity="0.3">
<path id="Vector_28" d="M74.2472 116.593C74.0991 116.17 73.951 115.741 73.8082 115.297C73.6654 114.852 73.5226 114.456 73.4115 114.043C73.2384 113.41 73.1146 112.765 73.0413 112.113C70.5447 122.273 74.353 129.43 80.9012 129.932C90.4591 130.668 102.117 131.202 106.819 129.964C115.414 127.711 118.567 120.544 119.318 119.385C120.069 118.227 126.908 105.707 122.719 93.6792C118.53 81.6512 111.23 68.8722 111.225 68.8722L104.27 71.1942C104.27 71.1942 105.544 77.1341 107.56 84.243C109.776 92.0554 112.748 104.284 112.579 111.43C112.47 115.73 111.082 119.899 108.591 123.405H77.0083C77.0083 123.405 76.3312 122.728 74.2472 116.614" fill="black"/>
</g>
<path id="Vector_29" d="M7.20953 111.182L7.43168 108.77L65.0855 115.413C65.8563 115.504 66.6004 115.752 67.2722 116.141C67.944 116.53 68.5293 117.051 68.9924 117.674C69.4554 118.297 69.7863 119.008 69.9649 119.764C70.1435 120.519 70.166 121.303 70.0311 122.067L69.7719 123.527L10.1028 114.853C9.24224 114.727 8.46244 114.277 7.92414 113.594C7.38583 112.911 7.13006 112.048 7.20953 111.182V111.182Z" fill="#455A64"/>
<g id="Group_3" opacity="0.3">
<path id="Vector_30" d="M7.20953 111.182L7.43168 108.77L65.0855 115.413C65.8563 115.504 66.6004 115.752 67.2722 116.141C67.944 116.53 68.5293 117.051 68.9924 117.674C69.4554 118.297 69.7863 119.008 69.9649 119.764C70.1435 120.519 70.166 121.303 70.0311 122.067L69.7719 123.527L10.1028 114.853C9.24224 114.727 8.46244 114.277 7.92414 113.594C7.38583 112.911 7.13006 112.048 7.20953 111.182V111.182Z" fill="black"/>
</g>
<g id="Group_4" opacity="0.3">
<path id="Vector_31" d="M119.324 127.314C119.324 127.314 132.019 113.356 134.637 102.375C135.952 102.368 137.267 102.466 138.567 102.666C138.567 102.666 131.056 123.072 119.324 127.314Z" fill="black"/>
</g>
<path id="Vector_32" d="M134.455 97.4559C134.49 97.5715 134.513 97.6902 134.524 97.8103C134.556 98.043 134.624 98.3816 134.672 98.8311C134.788 100.093 134.754 101.364 134.571 102.618C134.278 104.48 133.713 106.289 132.895 107.987C131.891 110.051 130.769 112.055 129.536 113.99C127.324 117.528 124.839 120.889 122.104 124.04C121.073 125.262 120.221 126.235 119.624 126.902L118.941 127.669C118.865 127.762 118.78 127.849 118.688 127.928C118.751 127.826 118.824 127.731 118.904 127.642L119.56 126.849L121.988 123.94C124.678 120.771 127.137 117.412 129.346 113.89C130.574 111.959 131.699 109.964 132.715 107.913C133.529 106.239 134.103 104.458 134.418 102.624C134.616 101.38 134.671 100.119 134.582 98.8629C134.556 98.4186 134.497 98.0748 134.481 97.842C134.462 97.7143 134.453 97.5852 134.455 97.4559V97.4559Z" fill="#263238"/>
<path id="Vector_33" d="M112.51 127.214C111.107 126.044 109.799 124.764 108.602 123.384C109.326 123.941 110.006 124.555 110.633 125.22C111.312 125.832 111.94 126.499 112.51 127.214V127.214Z" fill="#263238"/>
<path id="Vector_34" d="M74.8398 126.785C75.0421 126.133 75.3572 125.52 75.7708 124.976C76.1266 124.394 76.5771 123.876 77.1037 123.442C77.1566 123.485 76.5747 124.183 75.9559 125.098C75.337 126.013 74.898 126.812 74.8398 126.785Z" fill="#263238"/>
<path id="Vector_35" d="M50.4506 134.846C51.144 134.213 51.7283 133.469 52.1802 132.646C52.6549 131.746 52.9445 130.761 53.0318 129.747C53.1608 128.512 52.9454 127.266 52.4096 126.145C51.8737 125.025 51.0382 124.075 49.9957 123.4C49.1545 122.828 48.2063 122.432 47.2082 122.236C46.2842 122.068 45.3384 122.055 44.4102 122.199C44.4102 122.199 44.4736 122.173 44.6006 122.141C44.7741 122.093 44.9509 122.058 45.1295 122.035C45.8222 121.94 46.5259 121.956 47.2135 122.083C48.238 122.264 49.214 122.655 50.0803 123.231C51.1659 123.918 52.0352 124.897 52.5883 126.057C53.1413 127.216 53.3556 128.508 53.2063 129.784C53.1089 130.821 52.7973 131.826 52.2913 132.736C51.9569 133.349 51.5286 133.906 51.0218 134.386C50.8473 134.561 50.6833 134.666 50.5881 134.751C50.5461 134.788 50.4999 134.82 50.4506 134.846Z" fill="#263238"/>
<path id="Vector_36" d="M29.3918 130.424C29.2488 129.757 29.1796 129.076 29.1855 128.393C29.1152 127.713 29.1152 127.027 29.1855 126.346C29.3287 127.016 29.3979 127.698 29.3918 128.383C29.465 129.061 29.465 129.746 29.3918 130.424V130.424Z" fill="#263238"/>
<path id="Vector_37" d="M30.9222 130.43C30.7283 129.767 30.6042 129.087 30.5519 128.399C30.4305 127.72 30.3791 127.03 30.3985 126.341C30.5961 127.002 30.7202 127.684 30.7688 128.372C30.8965 129.05 30.9479 129.74 30.9222 130.43Z" fill="#263238"/>
<path id="Vector_38" d="M54.7049 91.2938C54.7049 91.352 47.6965 91.4049 39.0485 91.4049C30.4004 91.4049 23.3867 91.352 23.3867 91.2938C23.3867 91.2356 30.4004 91.1827 39.0485 91.1827C47.6965 91.1827 54.7049 91.2303 54.7049 91.2938Z" fill="#263238"/>
<path id="Vector_39" d="M17.991 140.178C17.9225 140.123 17.8604 140.061 17.8059 139.993C17.6948 139.866 17.515 139.681 17.314 139.421C16.721 138.704 16.1902 137.938 15.7272 137.131C14.1973 134.457 13.3982 131.428 13.4103 128.347C13.4224 125.266 14.2451 122.243 15.796 119.581C16.2583 118.777 16.7892 118.014 17.3828 117.301C17.5838 117.042 17.7689 116.862 17.88 116.735C17.9369 116.667 18.0007 116.605 18.0704 116.55C18.0259 116.625 17.9746 116.696 17.917 116.762C17.8112 116.899 17.6419 117.09 17.4515 117.354C16.8888 118.081 16.383 118.85 15.9388 119.655C14.4428 122.308 13.6506 125.299 13.6376 128.344C13.6247 131.389 14.3914 134.387 15.8647 137.052C16.3052 137.86 16.8055 138.635 17.3616 139.369C17.5467 139.638 17.716 139.823 17.8165 139.966C17.883 140.029 17.9416 140.1 17.991 140.178V140.178Z" fill="#455A64"/>
<path id="Vector_40" d="M77.1094 133.302C77.1094 133.302 77.596 144.616 77.6066 145.16L80.0079 146.98L85.768 145.546L85.2391 133.042L77.1094 133.302Z" fill="#FFBE9D"/>
<path id="Vector_41" d="M92.9754 33.7563L99 36.9775L109.076 29.6306L112.006 34.6872C112.006 34.6872 105.871 40.606 103.692 42.6212C101.512 44.6365 100.084 45.7102 98.4922 45.3981C96.9001 45.0861 88.0352 40.1617 88.0352 40.1617C88.0352 40.1617 90.6164 33.8621 92.9754 33.7563Z" fill="#FFBE9D"/>
<path id="Vector_42" d="M99.0325 39.2201C99.0325 39.2201 99.0695 39.2571 99.0907 39.3206V39.3735H98.9584V39.3259V39.1672C98.9218 38.8653 98.9024 38.5615 98.9002 38.2574C98.8504 37.8224 98.8881 37.3818 99.0113 36.9615C99.1596 37.3746 99.2155 37.8151 99.1753 38.2521C99.1753 38.6065 99.1753 38.9292 99.1488 39.1672V39.3259V39.3735C98.8738 39.3735 99.0695 39.3735 99.0113 39.3735V39.3153C98.9954 39.2571 99.0166 39.2201 99.0325 39.2201Z" fill="#EB996E"/>
<path id="Vector_43" d="M110.33 36.0625C110.531 36.126 112.409 34.1002 112.409 34.1002C112.409 34.1002 115.926 34.0367 116.767 33.5712C117.608 33.1058 118.883 31.3709 118.883 31.3709L117.185 26.1979C115.614 26.3007 114.051 26.4949 112.504 26.7797C111.382 27.0918 108.701 29.9004 108.701 29.9004L107.548 31.6935C107.548 31.6935 107.188 35.0946 110.33 36.0625Z" fill="#FFBE9D"/>
<path id="Vector_44" d="M116.275 33.8621C116.707 33.8312 117.136 33.7765 117.561 33.6981C118.407 33.5553 119.28 33.4812 119.253 32.6402C119.256 32.5009 119.228 32.3627 119.173 32.2349C119.117 32.1072 119.034 31.9929 118.931 31.8997C118.931 31.8997 119.555 31.6406 119.55 31.1698C119.548 31.0329 119.514 30.8982 119.451 30.7769C119.388 30.6555 119.296 30.5509 119.185 30.4716C119.185 30.4716 120.047 30.0749 120.073 29.3767C120.077 29.1187 120.008 28.8647 119.876 28.6434C119.743 28.422 119.551 28.2418 119.322 28.1231C119.322 28.1231 121.967 27.3668 122.178 27.2821C122.929 26.9754 124.363 26.293 123.765 25.7324C123.548 25.5261 123.464 25.2986 121.951 25.4838C120.576 25.6477 118.412 26.1555 118.412 26.1555C118.412 26.1555 116.561 26.2454 115.588 26.3459C114.382 26.4563 113.187 26.6705 112.018 26.9859C110.769 27.5625 109.68 29.2022 109.68 29.2022L112.425 34.1001L116.275 33.8621Z" fill="#FFBE9D"/>
<path id="Vector_45" d="M118.727 31.8786C118.479 31.8449 118.23 31.8308 117.981 31.8362H117.171C117.011 31.8236 116.85 31.8236 116.69 31.8362C116.507 31.8594 116.336 31.941 116.203 32.069C116.131 32.134 116.078 32.2178 116.05 32.3111C116.022 32.4044 116.02 32.5037 116.045 32.5979C116.099 32.7633 116.214 32.9015 116.367 32.984C116.493 33.0614 116.626 33.1252 116.764 33.1744L117.113 33.3067C117.335 33.386 117.51 33.4389 117.642 33.4706C117.774 33.5024 117.838 33.5182 117.838 33.5077C117.838 33.4971 117.573 33.4019 117.15 33.2326C116.902 33.1389 116.661 33.0257 116.431 32.8941C116.303 32.8223 116.207 32.7053 116.161 32.5662C116.144 32.4927 116.147 32.4158 116.17 32.344C116.194 32.2722 116.236 32.2082 116.293 32.1589C116.409 32.0493 116.554 31.9774 116.711 31.9526C116.866 31.9397 117.022 31.9397 117.177 31.9526H117.986C118.234 31.9476 118.482 31.9228 118.727 31.8786V31.8786Z" fill="#EB996E"/>
<path id="Vector_46" d="M115.837 28.2659C116.112 28.1488 116.355 27.9674 116.546 27.737C116.768 27.5388 116.937 27.2878 117.038 27.0071C117.011 27.0071 116.794 27.3139 116.461 27.6577C116.128 28.0015 115.816 28.2395 115.837 28.2659Z" fill="#EB996E"/>
<path id="Vector_47" d="M113.603 27.0442C114.304 27.2128 114.941 27.5801 115.439 28.1021C115.93 28.6226 116.341 29.2147 116.655 29.8581C116.92 30.3871 117.147 30.9953 116.856 31.4872C116.679 31.7281 116.42 31.8955 116.127 31.9579C115.835 32.0203 115.529 31.9733 115.269 31.8258C114.762 31.5199 114.362 31.0631 114.127 30.5193C113.894 29.9773 113.595 29.4658 113.238 28.996" fill="#FFBE9D"/>
<path id="Vector_48" d="M113.277 28.9906C113.277 28.9906 113.373 29.1122 113.526 29.3555C113.72 29.6992 113.896 30.0522 114.055 30.4134C114.174 30.6685 114.316 30.9128 114.478 31.1433C114.663 31.4142 114.905 31.6416 115.187 31.8098C115.508 31.9923 115.885 32.0471 116.245 31.9632C116.443 31.9187 116.625 31.8219 116.774 31.6829C116.916 31.539 117.011 31.354 117.043 31.1539C117.081 30.7608 117.002 30.3653 116.816 30.0167C116.657 29.6969 116.48 29.3861 116.287 29.0858C115.97 28.5717 115.57 28.1141 115.102 27.7317C114.786 27.4754 114.428 27.275 114.044 27.1393C113.94 27.1014 113.832 27.073 113.722 27.0547C113.648 27.0547 113.611 27.0547 113.611 27.0547C113.611 27.0547 113.764 27.097 114.028 27.1975C114.4 27.3479 114.746 27.5549 115.055 27.8111C115.508 28.1948 115.896 28.6505 116.202 29.1598C116.386 29.4577 116.553 29.7649 116.705 30.0802C116.879 30.404 116.955 30.7718 116.922 31.1381C116.895 31.3168 116.813 31.483 116.689 31.6141C116.56 31.7359 116.401 31.8217 116.229 31.8627C115.896 31.9464 115.544 31.899 115.245 31.7305C114.976 31.5707 114.744 31.3562 114.563 31.101C114.401 30.8766 114.258 30.6396 114.134 30.3923C113.96 30.0279 113.764 29.6746 113.547 29.3344C113.468 29.218 113.394 29.1334 113.346 29.0752C113.298 29.017 113.277 28.9853 113.277 28.9906Z" fill="#EB996E"/>
<path id="Vector_49" d="M118.644 31.8785C117.559 31.8794 116.475 31.9359 115.396 32.0478C115.088 32.1045 114.77 32.0771 114.476 31.9684C114.248 31.8574 114.164 31.2861 114.105 31.0428L118.083 30.424" fill="#FFBE9D"/>
<path id="Vector_50" d="M118.085 30.424C117.983 30.4232 117.88 30.4321 117.779 30.4504L116.932 30.5668L114.097 30.9847H114.039V31.0481C114.081 31.228 114.118 31.429 114.182 31.6247C114.207 31.7064 114.243 31.7846 114.288 31.8574C114.309 31.8943 114.336 31.9281 114.367 31.9579C114.401 31.9888 114.441 32.0138 114.483 32.032C114.633 32.0906 114.793 32.1194 114.954 32.1166C115.266 32.1166 115.552 32.0743 115.827 32.0531C116.356 32.0055 116.885 31.9632 117.287 31.9368C117.689 31.9103 118.038 31.8997 118.276 31.8891C118.396 31.898 118.516 31.898 118.635 31.8891C118.517 31.8693 118.396 31.8604 118.276 31.8627C118.038 31.8627 117.699 31.8627 117.281 31.8627C116.864 31.8627 116.366 31.9103 115.816 31.9526C115.541 31.9526 115.25 32.0108 114.959 32.0055C114.813 32.0091 114.667 31.9821 114.531 31.9262C114.404 31.8839 114.346 31.7358 114.293 31.5929C114.24 31.4501 114.198 31.2121 114.155 31.027L114.108 31.0957C115.229 30.9212 116.224 30.7572 116.932 30.6356L117.773 30.4875C117.879 30.4748 117.983 30.4536 118.085 30.424V30.424Z" fill="#EB996E"/>
<path id="Vector_51" d="M119.242 30.2019L115.101 30.9953C114.811 31.0683 114.51 31.0916 114.212 31.064C114.064 31.0492 113.922 30.998 113.798 30.9149C113.674 30.8319 113.573 30.7196 113.503 30.588C113.442 30.3938 113.447 30.1848 113.517 29.9936C113.587 29.8024 113.718 29.6395 113.889 29.5301C114.244 29.3195 114.638 29.1861 115.048 29.1387C116.307 28.8911 117.545 28.5463 118.75 28.1073" fill="#FFBE9D"/>
<path id="Vector_52" d="M118.743 28.0914C118.702 28.0971 118.661 28.1078 118.622 28.1232L118.278 28.2342C117.982 28.3242 117.553 28.4617 117.019 28.6045C116.485 28.7473 115.84 28.9113 115.12 29.0541C114.732 29.1049 114.353 29.2155 113.999 29.382C113.809 29.4816 113.649 29.6317 113.539 29.8158C113.416 30.007 113.367 30.2364 113.401 30.4611C113.427 30.5727 113.476 30.6775 113.545 30.7687C113.615 30.8599 113.703 30.9353 113.803 30.99C113.991 31.0925 114.202 31.1453 114.417 31.1434C114.803 31.1151 115.187 31.0567 115.564 30.9688L117.485 30.588L118.775 30.3235L119.124 30.2442L119.246 30.2072C119.204 30.2013 119.161 30.2013 119.119 30.2072L118.765 30.2654L117.469 30.4928L115.543 30.8525C115.173 30.9374 114.796 30.9922 114.417 31.0164C114.223 31.0194 114.031 30.972 113.861 30.8789C113.775 30.8327 113.7 30.7686 113.641 30.6911C113.582 30.6136 113.54 30.5244 113.518 30.4293C113.489 30.2339 113.532 30.0346 113.639 29.8687C113.739 29.7038 113.882 29.5687 114.052 29.4772C114.396 29.3147 114.764 29.2058 115.141 29.1546C115.861 29.0065 116.506 28.8372 117.04 28.6838C117.574 28.5305 118.003 28.3771 118.294 28.2713L118.627 28.139L118.743 28.0914Z" fill="#EB996E"/>
<path id="Vector_53" d="M110.961 31.2174C110.961 31.2174 111.019 31.3391 111.178 31.4819C111.39 31.6594 111.64 31.7876 111.908 31.8574C112.175 31.9299 112.455 31.9408 112.728 31.8892C112.934 31.8468 113.05 31.7887 113.045 31.7728C112.678 31.8312 112.303 31.8223 111.939 31.7463C111.582 31.6354 111.25 31.4557 110.961 31.2174V31.2174Z" fill="#EB996E"/>
<path id="Vector_54" d="M88.5508 60.5204C88.5508 60.5204 98.6005 62.3769 99.2987 62.5674C99.9969 62.7578 102.869 64.1118 103.001 64.9793C103.078 66.1205 103.078 67.2656 103.001 68.4068C103.001 68.4068 102.472 68.8247 102.166 67.9889C101.953 67.1764 101.862 66.3368 101.896 65.4977L100.309 64.8841L101.176 66.4286L101.319 70.0465C101.319 70.0465 100.208 69.946 99.9916 69.0785C99.8552 68.4779 99.7843 67.8643 99.7801 67.2484L98.6164 66.2646L99.4891 67.4441L99.7801 70.0465C99.7801 70.0465 98.9338 70.3215 98.664 69.745C98.4707 68.9934 98.3747 68.2202 98.3784 67.4441L95.099 66.2964L92.9304 67.5076L90.5766 66.217C90.2474 66.035 89.9621 65.7829 89.7409 65.4785C89.5197 65.1742 89.368 64.825 89.2966 64.4557L88.5508 60.5204Z" fill="#FFBE9D"/>
<path id="Vector_55" d="M68.481 10.5889L68.8143 28.1231C68.8404 29.5025 69.3879 30.8209 70.3466 31.813C71.3054 32.8051 72.6042 33.3973 73.982 33.4706V33.4706C74.7274 33.509 75.4728 33.3941 76.1721 33.133C76.8714 32.8719 77.5097 32.4702 78.0475 31.9527C78.5854 31.4351 79.0114 30.8127 79.2992 30.124C79.587 29.4353 79.7306 28.6949 79.7209 27.9485C79.7209 26.2771 79.668 24.9125 79.668 24.9125C79.668 24.9125 83.9312 24.4734 84.2063 20.2472C84.3596 17.8036 84.2063 12.2392 84.0846 7.97597C84.0383 6.58087 83.4683 5.25437 82.4882 4.2605C81.508 3.26663 80.1896 2.67828 78.7953 2.61258L76.2405 2.48035C75.1949 2.49103 74.162 2.71066 73.2025 3.12633C72.243 3.54199 71.3763 4.14529 70.6534 4.90076C69.9304 5.65623 69.3658 6.54862 68.9928 7.52546C68.6197 8.50229 68.4457 9.54386 68.481 10.5889Z" fill="#FFBE9D"/>
<path id="Vector_56" d="M79.6677 24.8702C77.7149 24.7619 75.8338 24.0976 74.2461 22.9554C74.2461 22.9554 75.4468 26.1291 79.6888 25.9386L79.6677 24.8702Z" fill="#EB996E"/>
<path id="Vector_57" d="M83.0802 11.9484C83.0061 12.0277 82.5512 11.6627 81.9112 11.631C81.2712 11.5993 80.7687 11.9008 80.7052 11.8161C80.6418 11.7315 80.7529 11.6416 80.9697 11.4988C81.2621 11.3212 81.6014 11.2363 81.943 11.2555C82.2814 11.2717 82.6058 11.3959 82.8686 11.6098C83.059 11.7685 83.1225 11.9166 83.0802 11.9484Z" fill="#263238"/>
<path id="Vector_58" d="M76.8245 13.3394C76.819 13.4975 76.7516 13.6471 76.6368 13.7559C76.5221 13.8648 76.3691 13.9242 76.211 13.9213C76.1339 13.9227 76.0572 13.9089 75.9855 13.8807C75.9137 13.8524 75.8482 13.8104 75.7927 13.7568C75.7372 13.7033 75.6928 13.6393 75.662 13.5686C75.6312 13.4979 75.6147 13.4218 75.6133 13.3447C75.6188 13.1867 75.6862 13.0371 75.801 12.9283C75.9158 12.8194 76.0687 12.76 76.2268 12.7629C76.3041 12.7608 76.3811 12.7741 76.4532 12.8021C76.5252 12.83 76.591 12.8721 76.6467 12.9258C76.7023 12.9794 76.7467 13.0437 76.7772 13.1147C76.8078 13.1857 76.8239 13.2621 76.8245 13.3394Z" fill="#263238"/>
<path id="Vector_59" d="M82.7425 13.3394C82.737 13.4975 82.6696 13.6471 82.5548 13.7559C82.44 13.8648 82.2871 13.9242 82.1289 13.9213C82.0517 13.9234 81.9747 13.9101 81.9026 13.8821C81.8306 13.8542 81.7648 13.8121 81.7091 13.7584C81.6535 13.7047 81.6091 13.6405 81.5785 13.5695C81.548 13.4985 81.5319 13.4221 81.5312 13.3447C81.5368 13.1867 81.6042 13.0371 81.719 12.9283C81.8337 12.8194 81.9867 12.76 82.1448 12.7629C82.2221 12.7608 82.299 12.7741 82.3711 12.8021C82.4432 12.83 82.509 12.8721 82.5646 12.9258C82.6203 12.9794 82.6647 13.0437 82.6952 13.1147C82.7258 13.1857 82.7418 13.2621 82.7425 13.3394Z" fill="#263238"/>
<path id="Vector_60" d="M76.8018 11.7157C76.7224 11.7897 76.2728 11.4248 75.6328 11.393C74.9928 11.3613 74.4903 11.6628 74.4216 11.5781C74.3528 11.4935 74.4745 11.4036 74.6913 11.2661C74.9817 11.0834 75.3221 10.9965 75.6646 11.0175C76.003 11.0337 76.3274 11.1579 76.5902 11.3719C76.7806 11.5358 76.8388 11.6786 76.8018 11.7157Z" fill="#263238"/>
<path id="Vector_61" d="M78.856 16.8886C79.2016 16.7993 79.5569 16.7531 79.9138 16.7511C80.0778 16.7511 80.2418 16.7193 80.2735 16.6082C80.2942 16.4378 80.2648 16.265 80.1889 16.111L79.7551 14.8204C79.3555 13.7258 79.0442 12.6008 78.8242 11.4564C79.3112 12.5158 79.7127 13.6124 80.0249 14.7358C80.1677 15.1907 80.2999 15.6191 80.4322 16.0317C80.5259 16.2376 80.5428 16.4703 80.4798 16.6876C80.4531 16.7456 80.4135 16.7968 80.364 16.8371C80.3145 16.8775 80.2564 16.9059 80.1942 16.9203C80.1011 16.9328 80.0069 16.9328 79.9138 16.9203C79.5612 16.9531 79.2059 16.9424 78.856 16.8886V16.8886Z" fill="#263238"/>
<path id="Vector_62" d="M76.9116 17.2377C77.0227 17.2377 76.9857 17.9464 77.5622 18.4754C78.1388 19.0043 78.8951 18.9673 78.8951 19.0678C78.8951 19.1683 78.7206 19.1947 78.4032 19.1894C77.9896 19.1724 77.5948 19.0115 77.2872 18.7345C76.9929 18.458 76.8151 18.0797 76.79 17.6767C76.7794 17.4016 76.864 17.2324 76.9116 17.2377Z" fill="#263238"/>
<path id="Vector_63" d="M76.8796 9.3566C76.8055 9.52586 76.1655 9.40949 75.3932 9.46239C74.621 9.51528 74.0021 9.68984 73.9069 9.52587C73.8646 9.45181 73.981 9.28784 74.2402 9.12916C74.5814 8.93405 74.9637 8.82172 75.3562 8.80122C75.7489 8.77427 76.1424 8.84136 76.504 8.99693C76.7791 9.12388 76.9113 9.27197 76.8796 9.3566Z" fill="#263238"/>
<path id="Vector_64" d="M82.8858 9.59995C82.7641 9.74276 82.3251 9.56292 81.7856 9.53119C81.2461 9.49945 80.7859 9.57879 80.6907 9.41482C80.6484 9.34077 80.7277 9.19795 80.934 9.06572C81.2098 8.91179 81.5252 8.84367 81.8399 8.87005C82.1547 8.89643 82.4544 9.01613 82.7007 9.21382C82.8858 9.3725 82.9281 9.53119 82.8858 9.59995Z" fill="#263238"/>
<path id="Vector_65" d="M69.7448 13.8155C69.676 13.7784 66.8833 12.8052 66.8251 15.6985C66.7669 18.5917 69.7025 18.0575 69.7025 17.994C69.7025 17.9306 69.7448 13.8155 69.7448 13.8155Z" fill="#FFBE9D"/>
<path id="Vector_66" d="M68.8313 16.8569C68.8313 16.8569 68.7837 16.8939 68.6938 16.9309C68.5728 16.9769 68.4392 16.9769 68.3182 16.9309C68.1388 16.805 67.9955 16.6342 67.9027 16.4356C67.8099 16.2369 67.7708 16.0175 67.7893 15.799C67.7883 15.551 67.8406 15.3057 67.9427 15.0797C67.9722 14.9892 68.0232 14.9073 68.0914 14.841C68.1596 14.7746 68.2429 14.7258 68.3341 14.6988C68.3916 14.685 68.4522 14.6917 68.5053 14.7178C68.5584 14.7439 68.6008 14.7877 68.625 14.8416C68.662 14.9263 68.625 14.9845 68.662 14.9897C68.6991 14.995 68.7255 14.9421 68.7044 14.8205C68.6878 14.7486 68.6489 14.6838 68.5933 14.6354C68.513 14.5748 68.413 14.5465 68.3129 14.556C68.1953 14.5797 68.0854 14.6322 67.9931 14.7088C67.9008 14.7854 67.8289 14.8838 67.784 14.995C67.6536 15.2426 67.5881 15.5192 67.5936 15.799C67.5741 16.0568 67.6309 16.3147 67.757 16.5404C67.883 16.7661 68.0727 16.9498 68.3024 17.0685C68.3804 17.0907 68.4622 17.0961 68.5425 17.0842C68.6228 17.0724 68.6996 17.0435 68.7678 16.9997C68.826 16.9362 68.8419 16.8622 68.8313 16.8569Z" fill="#EB996E"/>
<path id="Vector_67" d="M68.1412 13.6303C68.4169 13.6279 68.6882 13.6998 68.9265 13.8385C69.1648 13.9772 69.3613 14.1775 69.4953 14.4185C69.6593 14.8416 69.6804 15.3123 69.8444 15.7355C69.9078 15.9535 70.0421 16.1442 70.226 16.2774C70.4099 16.4105 70.633 16.4786 70.8599 16.4707C71.0127 16.4315 71.1523 16.3527 71.2647 16.2422C71.3771 16.1316 71.4583 15.9933 71.5 15.8413C71.5777 15.5374 71.5974 15.2216 71.5581 14.9104C71.4523 13.551 71.2408 12.1969 71.2566 10.8323C71.2167 9.46025 71.5849 8.10723 72.3145 6.94461C72.6857 6.37055 73.205 5.90733 73.8176 5.60384C74.4302 5.30035 75.1133 5.16784 75.7949 5.22028C76.6888 5.33665 77.4875 5.84971 78.3761 6.02426C78.9005 6.11769 79.4392 6.09155 79.9521 5.94776C80.465 5.80397 80.9387 5.54626 81.3381 5.19383C81.4439 5.10391 81.9094 4.82887 81.9094 4.82887C81.9136 4.50682 81.8235 4.19057 81.6502 3.9191C79.9629 2.18948 76.7946 1.56534 74.425 2.03609C73.2206 2.26572 72.0809 2.75524 71.0851 3.47053C70.0894 4.18581 69.2617 5.10965 68.6596 6.17765C67.5382 8.31984 67.681 11.3877 68.1306 13.6303" fill="#263238"/>
<path id="Vector_68" d="M80.6041 4.36339C79.0173 4.42157 75.9442 5.01399 74.68 5.9978C74.5319 6.11417 74.3679 6.30459 74.4684 6.46856C74.5689 6.63252 74.717 6.5955 74.8598 6.59021C76.3275 6.66513 77.7841 6.88662 79.2077 7.25138C80.1136 7.57143 81.0721 7.71681 82.0322 7.67981C82.5119 7.65351 82.9765 7.50322 83.3807 7.24364C83.7849 6.98405 84.1149 6.62404 84.3383 6.19879L84.7456 6.35219C84.2823 5.69488 83.6585 5.16705 82.9336 4.81894C82.2087 4.47082 81.4067 4.314 80.6041 4.36339Z" fill="#263238"/>
<path id="Vector_69" d="M83.919 6.30987C83.0562 5.49809 81.9503 4.99256 80.7718 4.87117C77.1116 4.53794 71.1029 5.63812 67.9187 11.9272C67.5719 10.8388 67.3553 9.7131 67.2734 8.57371C67.2734 7.71155 67.8024 2.58617 73.0917 0.999368C73.1023 0.999368 81.068 -1.99969 83.919 6.30987Z" fill="#455A64"/>
<g id="Group_5" opacity="0.3">
<path id="Vector_70" d="M83.919 6.31C83.0015 5.32999 81.7374 4.74727 80.3963 4.68616C77.1169 4.52748 70.9178 5.99792 67.9187 11.9273C67.5719 10.8389 67.3553 9.71322 67.2734 8.57383C67.2734 7.71167 67.8024 2.58629 73.0917 0.99949C73.1023 0.99949 81.068 -1.99956 83.919 6.31Z" fill="black"/>
</g>
<path id="Vector_71" d="M68.4197 11.0333C70.0065 8.38859 72.3867 6.56377 74.9521 4.97696C77.5174 3.39016 81.7436 1.84038 84.658 1.07872C85.521 0.800398 86.4336 0.710218 87.3344 0.814252C87.7832 0.872825 88.2063 1.05674 88.5553 1.34491C88.9043 1.63307 89.1649 2.01379 89.3073 2.44337C89.5824 3.54355 87.6253 5.22556 86.705 5.88673C85.8532 6.45415 84.9703 6.97332 84.0603 7.4418C84.0603 7.4418 83.9545 5.47416 80.6963 5.04573C76.2585 4.4639 68.2822 11.1443 68.4197 11.0333Z" fill="#455A64"/>
<path id="Vector_72" d="M74.4648 2.91409C75.431 2.45934 76.4413 2.10486 77.4798 1.85622C78.5294 1.69413 79.5923 1.63566 80.6534 1.68167C80.3548 1.57311 80.0401 1.51588 79.7225 1.51241C78.955 1.45102 78.1828 1.49373 77.4269 1.63936C76.6738 1.78673 75.9442 2.03585 75.2582 2.37986C74.967 2.51458 74.6992 2.69493 74.4648 2.91409V2.91409Z" fill="white"/>
<path id="Vector_73" d="M85.8408 144.843L85.8725 145.34C85.8725 145.34 94.8644 148.339 95.0707 149.931L77.637 150.598L77.5312 145.028C78.854 145.573 80.2753 145.838 81.7054 145.806C83.1356 145.774 84.5436 145.446 85.8408 144.843V144.843Z" fill="#455A64"/>
<g id="Group_6" opacity="0.6">
<path id="Vector_74" d="M77.6358 150.598L77.6094 149.26L94.3131 149.106C94.3131 149.106 95.1065 149.402 95.0536 149.931L77.6358 150.598Z" fill="white"/>
</g>
<path id="Vector_75" d="M85.9382 145.383C85.9382 145.462 85.5203 145.515 85.1183 145.795C84.7164 146.075 84.5154 146.425 84.4307 146.398C84.3461 146.372 84.4307 145.869 84.9597 145.562C85.4886 145.256 85.9541 145.308 85.9382 145.383Z" fill="#263238"/>
<path id="Vector_76" d="M87.8095 146.038C87.836 146.118 87.4763 146.266 87.2065 146.626C86.9368 146.985 86.8786 147.35 86.794 147.35C86.7093 147.35 86.6247 146.89 86.9685 146.451C87.3123 146.012 87.8042 145.959 87.8095 146.038Z" fill="#263238"/>
<path id="Vector_77" d="M88.9779 148.112C88.8986 148.112 88.7558 147.726 88.9462 147.271C89.1366 146.816 89.528 146.626 89.565 146.689C89.6021 146.753 89.3746 147.006 89.2212 147.382C89.0678 147.758 89.0625 148.112 88.9779 148.112Z" fill="#263238"/>
<path id="Vector_78" d="M87.2354 105.908L84.2839 96.0701L80.3539 83.545L80.5708 77.0972L73.9908 72.5643C69.6906 72.6383 57.1602 71.8978 57.1602 71.8978C57.1602 71.8978 57.4828 78.4355 58.1281 83.143C58.2589 84.0769 58.6048 84.9677 59.1384 85.7453L64.909 94.1607L74.8319 112.673C74.8319 112.673 75.493 119.285 75.7681 124.998C76.0748 131.398 77.1063 142.981 77.1063 142.981L87.3147 143.225L87.9547 117.582C88.2139 113.731 88.4995 109.558 87.2354 105.908Z" fill="#263238"/>
<path id="Vector_79" d="M93.5586 105.596C94.7328 106.548 95.7854 119.491 93.8495 118.55L96.1504 120.724L102.307 119.666L103.159 106.067L93.5586 105.596Z" fill="#FFBE9D"/>
<path id="Vector_80" d="M76.1547 66.9152C76.1547 66.9152 101.66 73.8548 104.305 79.3451C105.37 81.1429 105.868 83.2207 105.733 85.3062C105.579 89.0088 103.474 115.63 103.474 115.63L93.8423 114.995L92.9166 105.173L92.758 90.3046L93.4297 88.6121C92.6925 88.7824 91.9253 88.7733 91.1923 88.5856C90.0974 88.263 73.4783 83.2328 73.4783 83.2328L66.9883 73.0032L76.1547 66.9152Z" fill="#263238"/>
<path id="Vector_81" d="M102.455 118.92V119.449C102.455 119.449 111.49 123.485 111.49 125.225L93.2891 124.463L93.7863 118.417C95.1105 119.119 96.5702 119.527 98.0661 119.613C99.5621 119.7 101.059 119.464 102.455 118.92V118.92Z" fill="#455A64"/>
<g id="Group_7" opacity="0.6">
<path id="Vector_82" d="M93.3047 124.463L93.4211 123.009L110.828 124.273C110.828 124.273 111.622 124.659 111.505 125.225L93.3047 124.463Z" fill="white"/>
</g>
<path id="Vector_83" d="M102.495 119.518C102.495 119.608 102.04 119.629 101.59 119.893C101.14 120.158 100.892 120.528 100.813 120.486C100.733 120.443 100.887 119.957 101.437 119.629C101.987 119.301 102.521 119.433 102.495 119.518Z" fill="#263238"/>
<path id="Vector_84" d="M104.374 120.385C104.374 120.475 104.004 120.607 103.681 120.972C103.359 121.337 103.263 121.729 103.152 121.723C103.041 121.718 103.031 121.194 103.433 120.766C103.835 120.338 104.379 120.301 104.374 120.385Z" fill="#263238"/>
<path id="Vector_85" d="M105.365 122.723C105.286 122.723 105.18 122.289 105.429 121.813C105.677 121.337 106.1 121.157 106.137 121.232C106.174 121.306 105.905 121.559 105.704 121.951C105.503 122.342 105.455 122.723 105.365 122.723Z" fill="#263238"/>
<path id="Vector_86" d="M97.5034 83.6719C97.1979 83.813 96.916 84.0003 96.6677 84.2272C96.0373 84.7393 95.4708 85.3254 94.9804 85.9727C94.4896 86.6254 94.081 87.336 93.7638 88.0885C93.6113 88.3893 93.5078 88.7124 93.457 89.0458C93.9418 88.0265 94.5115 87.0498 95.1602 86.1261C95.8698 85.2427 96.6537 84.4216 97.5034 83.6719V83.6719Z" fill="#455A64"/>
<path id="Vector_87" d="M95.4357 81.6512C95.1979 81.9416 95.0021 82.2638 94.8539 82.6086C94.0476 84.231 93.5882 86.0036 93.5051 87.8133C93.4719 88.1858 93.4879 88.5611 93.5527 88.9294C93.6157 88.5639 93.6528 88.1945 93.6638 87.8239C93.7464 86.9319 93.8985 86.0476 94.1187 85.1792C94.341 84.3167 94.631 83.4731 94.9861 82.6562C95.156 82.3305 95.3061 81.995 95.4357 81.6512Z" fill="#455A64"/>
<path id="Vector_88" d="M78.3514 77.8746C78.4202 77.8746 79.5732 81.0482 80.922 84.9624C82.2708 88.8765 83.3075 92.1135 83.2335 92.14C83.1594 92.1664 82.0116 88.9928 80.6628 85.0523C79.314 81.1117 78.2773 77.9011 78.3514 77.8746Z" fill="#455A64"/>
<path id="Vector_89" d="M82.2383 31.0694L86.401 29.3979L97.26 35.2956L92.8275 45.4405L83.2697 40.696L82.2383 31.0694Z" fill="#455A64"/>
<path id="Vector_90" d="M86.4008 29.3979L79.7997 26.9014C79.7997 26.9014 78.3557 29.9533 75.1979 29.0171C72.0402 28.0809 68.5598 25.267 68.5598 25.267C68.5598 25.267 62.5564 27.6472 60.7263 28.7315C58.8962 29.8158 57.9071 57.9498 57.9071 57.9498L57.4099 68.8353L57.1137 70.8876C56.9873 71.8699 56.922 72.8592 56.918 73.8496C68.1049 76.362 79.165 73.7015 85.0943 70.4115C85.0943 70.4115 85.8771 69.798 85.5386 68.3963C85.2001 66.9946 84.4807 66.7513 84.4807 66.7513L84.6288 54.4483L85.729 41.8649L86.4008 29.3979Z" fill="#455A64"/>
<path id="Vector_91" d="M92.3142 61.2186L77.4617 55.0723L68.2582 34.6925L60.0703 38.1306C60.0703 38.1306 68.8612 60.2295 72.2728 62.0649C75.6845 63.9003 89.7541 64.7466 89.7541 64.7466L92.3142 61.2186Z" fill="#FFBE9D"/>
<path id="Vector_92" d="M60.7101 28.7315C60.7101 28.7315 57.6158 30.2812 57.6211 36.2053C57.6211 41.3518 59.1391 49.5556 59.1391 49.5556L73.7166 44.4831L69.2101 34.0102C68.1522 31.5137 65.8037 26.9225 60.7101 28.7315Z" fill="#455A64"/>
<path id="Vector_93" d="M60.8242 48.9738C60.9027 48.9327 60.984 48.8973 61.0675 48.868L61.7816 48.5929L64.4633 47.6197L73.6932 44.3562L73.6139 44.5254C73.1537 43.1396 72.6512 41.6586 72.1011 40.1511C71.2336 37.7762 70.3292 35.5494 69.4035 33.5659C68.9946 32.6217 68.4969 31.7184 67.9172 30.8683C67.4273 30.1247 66.7457 29.5271 65.9443 29.1387C64.7602 28.6019 63.4572 28.3814 62.1624 28.4987C61.8137 28.5388 61.4731 28.6315 61.1522 28.7738C61.0476 28.8419 60.9379 28.902 60.8242 28.9536C60.8242 28.9536 60.8242 28.9271 60.8983 28.8901C60.9679 28.8273 61.0441 28.7723 61.1257 28.7261C61.4436 28.5555 61.7892 28.4427 62.1466 28.3929C63.4663 28.23 64.8055 28.4255 66.0236 28.9589C66.864 29.3532 67.5822 29.9672 68.1024 30.7361C68.6999 31.5918 69.2119 32.5042 69.631 33.4601C70.5778 35.4436 71.4875 37.6916 72.3603 40.0559C72.8892 41.5687 73.4181 43.0497 73.8625 44.4408L73.9048 44.5677L73.7831 44.61L64.5215 47.7837L61.8133 48.6828L61.0834 48.9156C61 48.9465 60.9128 48.9661 60.8242 48.9738Z" fill="#263238"/>
<path id="Vector_94" d="M83.8156 67.1849C83.5893 67.3971 83.347 67.5916 83.0909 67.7668C82.8529 67.9466 82.562 68.1635 82.197 68.3856C81.8321 68.6078 81.4354 68.8881 80.9646 69.1367C80.4939 69.3853 79.9808 69.6656 79.4043 69.9407C78.8277 70.2157 78.2142 70.4696 77.553 70.7288C76.1079 71.2544 74.6218 71.6596 73.1099 71.9401C71.5944 72.192 70.0604 72.3159 68.5241 72.3103C67.8153 72.3103 67.1383 72.2786 66.5141 72.1992C65.9324 72.1554 65.3533 72.0812 64.7792 71.9771C64.2503 71.903 63.7795 71.7814 63.3617 71.6915C62.9438 71.6015 62.5947 71.501 62.3038 71.4111C62.0028 71.3367 61.709 71.2359 61.4258 71.1096C61.7316 71.153 62.0339 71.2184 62.3303 71.3053C62.6212 71.3794 62.9703 71.4693 63.3881 71.5381C63.806 71.6068 64.2714 71.7232 64.8004 71.7814C65.3293 71.8396 65.9059 71.94 66.53 71.9718C67.1541 72.0035 67.8153 72.0405 68.5188 72.0564C70.0397 72.0494 71.5574 71.9185 73.057 71.665C74.5549 71.3926 76.0283 70.9999 77.4631 70.4908C78.1137 70.2316 78.7431 70.0042 79.3038 69.7344C79.8644 69.4646 80.3934 69.2055 80.8906 68.9674C81.3878 68.7294 81.7686 68.4702 82.1336 68.2534C82.4481 68.0768 82.7536 67.8844 83.0486 67.6768C83.2908 67.4928 83.5473 67.3283 83.8156 67.1849Z" fill="#263238"/>
<path id="Vector_95" d="M83.8789 41.2831H79.8008V43.2137H83.8789V41.2831Z" fill="white"/>
<path id="Vector_96" d="M86.189 35.2903C86.2684 35.2903 86.115 38.2735 85.8558 41.9337C85.5966 45.5939 85.3269 48.5665 85.2475 48.5613C85.1682 48.556 85.3216 45.5781 85.5808 41.9178C85.8399 38.2576 86.0991 35.285 86.189 35.2903Z" fill="#263238"/>
<path id="Vector_97" d="M51.1135 48.9739H12.5859V57.3892H51.1135V48.9739Z" fill="#EC994B"/>
<path id="Vector_98" d="M53.707 57.479H10.0117V91.1774H53.707V57.479Z" fill="#EC994B"/>
<path id="Vector_99" d="M42.7579 90.9446C42.7103 90.9446 42.668 83.4338 42.668 74.1668C42.668 64.8999 42.7103 57.389 42.7579 57.389C42.8055 57.389 42.8425 64.8999 42.8425 74.1668C42.8425 83.4338 42.8055 90.9446 42.7579 90.9446Z" fill="#263238"/>
<path id="Vector_100" d="M52.185 83.5132H46.6523V89.0458H52.185V83.5132Z" fill="#F5F5F5"/>
<path id="Vector_101" opacity="0.3" d="M28.2778 57.479H23.3164V64.6725H28.2778V57.479Z" fill="white"/>
<path id="Vector_102" opacity="0.3" d="M28.3012 83.9893H23.3398V91.1828H28.3012V83.9893Z" fill="white"/>
<path id="Vector_103" opacity="0.3" d="M53.7068 57.389H42.7578V91.2726H53.7068V57.389Z" fill="black"/>
<path id="Vector_104" d="M53.5591 57.4789C53.5591 57.5583 43.8267 57.6165 31.8251 57.6165C19.8236 57.6165 10.0859 57.5583 10.0859 57.4789C10.0859 57.3996 19.8183 57.3414 31.8251 57.3414C43.8319 57.3414 53.5591 57.4049 53.5591 57.4789Z" fill="#263238"/>
<path id="Vector_105" opacity="0.3" d="M51.1092 48.9739H40.3242V57.331H51.1092V48.9739Z" fill="black"/>
<path id="Vector_106" d="M40.2399 57.2781C40.104 55.9268 40.058 54.5679 40.1024 53.2106C40.0578 51.8532 40.1038 50.4943 40.2399 49.1431C40.3793 50.4941 40.4253 51.8532 40.3775 53.2106C40.4251 54.5679 40.3791 55.927 40.2399 57.2781V57.2781Z" fill="#263238"/>
<path id="Vector_107" d="M29.32 48.9739H23.8984V51.5233H29.32V48.9739Z" fill="white"/>
<path id="Vector_108" d="M31.4903 49.1378C31.4834 49.0975 31.4834 49.0564 31.4903 49.0161L31.5326 48.6512C31.5696 48.3391 31.6384 47.8736 31.7653 47.2759C32.1065 45.5861 32.7536 43.9727 33.6748 42.5155C33.9907 42.035 34.3445 41.5805 34.7326 41.1562C35.1267 40.6695 35.5985 40.2512 36.129 39.9185C36.4296 39.738 36.7793 39.6565 37.1287 39.6857C37.3129 39.7172 37.4863 39.7941 37.6331 39.9096C37.78 40.025 37.8957 40.1754 37.9697 40.3469C38.2004 41.0309 38.217 41.769 38.0173 42.4626C37.6269 43.9416 36.8212 45.2778 35.6953 46.3133C34.4941 47.3939 33.1738 48.3344 31.76 49.1166L31.5643 49.233L31.485 49.2806L31.4109 49.2277C30.1041 48.2999 28.8667 47.2781 27.7084 46.1705C26.6224 45.1322 25.7272 43.9112 25.0637 42.5631C24.895 42.2442 24.7688 41.9046 24.6882 41.5529C24.602 41.1999 24.6336 40.8284 24.7781 40.495C24.8496 40.3241 24.9616 40.1732 25.1045 40.0553C25.2473 39.9374 25.4166 39.8559 25.5979 39.818C25.9489 39.7819 26.3009 39.876 26.587 40.0824C26.847 40.2659 27.0849 40.4789 27.2958 40.7171C27.5074 40.9393 27.7031 41.1668 27.8935 41.3889C28.2558 41.8201 28.5948 42.2703 28.9091 42.7377C29.8693 44.1426 30.6062 45.6878 31.0936 47.3183C31.2216 47.7602 31.3258 48.2086 31.4056 48.6618L31.4585 49.0161C31.4609 49.0566 31.4609 49.0973 31.4585 49.1378C31.4585 49.1378 31.4585 49.1008 31.4215 49.0214L31.3422 48.6723C31.2734 48.3655 31.1623 47.916 30.9825 47.35C30.466 45.7517 29.7194 44.2371 28.7663 42.854C28.4513 42.3957 28.1123 41.9543 27.7507 41.5317C27.5603 41.3096 27.3646 41.0874 27.153 40.8758C26.9517 40.6506 26.7244 40.45 26.476 40.2781C26.2391 40.1062 25.9474 40.0272 25.6561 40.056C25.5143 40.0849 25.3817 40.1483 25.2701 40.2406C25.1585 40.3328 25.0713 40.4511 25.0161 40.5849C24.7463 41.1562 25.0161 41.8491 25.307 42.4573C25.9635 43.7905 26.8478 44.9987 27.92 46.0277C29.0668 47.1237 30.2919 48.1349 31.5855 49.0532H31.4321L31.6278 48.9368C33.0236 48.1639 34.3278 47.2359 35.5155 46.1705C36.6085 45.178 37.3941 43.8931 37.7793 42.4679C37.9784 41.8254 37.9784 41.1376 37.7793 40.495C37.7208 40.3575 37.6286 40.2369 37.5112 40.1444C37.3938 40.052 37.255 39.9906 37.1075 39.9661C36.8096 39.9412 36.5114 40.0116 36.256 40.1671C35.745 40.4861 35.288 40.8842 34.9019 41.3466C34.5159 41.7615 34.1623 42.2053 33.844 42.6742C32.9187 44.102 32.2509 45.681 31.8711 47.3394C31.7336 47.9265 31.6489 48.3973 31.5908 48.6988L31.5273 49.0532L31.4903 49.1378Z" fill="#263238"/>
<path id="Vector_109" d="M53.8366 72.3791C53.8366 72.4532 44.0408 72.5166 31.9652 72.5166C19.8896 72.5166 10.0938 72.4532 10.0938 72.3791C10.0938 72.3051 19.8843 72.2416 31.9652 72.2416C44.046 72.2416 53.8366 72.2998 53.8366 72.3791Z" fill="#263238"/>
<path id="Vector_110" d="M31.5711 91.7223C31.4971 91.7223 31.4336 82.0851 31.4336 70.2C31.4336 58.3148 31.4971 48.6724 31.5711 48.6724C31.6452 48.6724 31.7086 58.3096 31.7086 70.2C31.7086 82.0904 31.6505 91.7223 31.5711 91.7223Z" fill="#263238"/>
</g>
</svg>
